<svg xmlns="http://www.w3.org/2000/svg" viewBox="0 0 806 806">
  <g transform="translate(0,806) scale(0.1,-0.1)">
    <path d="M2356 7725 c-22 -8 -51 -22 -65 -32 -147 -104 -783 -148 -946 -65
-78 39 -168 42 -239 7 -63 -31 -165 -125 -217 -200 -19 -27 -59 -84 -90 -125
-107 -143 -109 -149 -109 -380 0 -176 2 -205 19 -238 10 -20 21 -64 23 -97 3
-33 15 -80 26 -105 12 -25 27 -71 35 -102 8 -32 24 -72 35 -90 41 -68 252
-495 267 -543 9 -27 22 -63 30 -80 7 -16 18 -46 26 -65 7 -19 25 -54 41 -78
15 -24 28 -47 28 -53 0 -5 20 -50 45 -99 25 -49 45 -95 45 -102 0 -7 20 -53
45 -103 25 -49 45 -93 45 -97 0 -5 9 -27 19 -51 11 -23 25 -62 31 -87 18 -70
39 -130 65 -185 13 -27 31 -76 39 -107 41 -149 49 -173 74 -212 45 -70 52 -87
61 -150 5 -34 21 -96 35 -139 14 -42 26 -96 26 -118 0 -23 6 -55 14 -72 27
-60 46 -128 46 -167 0 -22 7 -59 15 -84 43 -125 57 -326 59 -826 1 -352 -7
-454 -39 -516 -8 -16 -15 -44 -15 -62 0 -18 -8 -49 -19 -70 -10 -20 -22 -51
-26 -69 -9 -44 -180 -379 -211 -414 -8 -8 -14 -19 -14 -23 0 -4 -22 -39 -48
-79 -27 -40 -52 -79 -56 -87 -15 -32 -34 -62 -54 -83 -20 -23 -172 -244 -172
-252 0 -3 -43 -69 -96 -147 -53 -79 -108 -163 -122 -188 -13 -25 -32 -54 -42
-65 -65 -75 -260 -417 -260 -456 0 -30 96 -121 159 -151 l54 -25 31 33 c36 40
59 69 111 144 21 30 43 58 50 62 7 4 27 33 46 63 19 31 44 72 57 91 12 19 22
38 22 43 0 4 9 16 20 26 11 10 20 22 20 26 0 4 14 28 30 52 17 25 30 49 30 55
0 5 6 12 13 15 7 2 23 24 35 48 13 24 31 56 40 70 9 15 32 52 50 83 18 30 48
74 67 96 19 22 48 66 66 98 18 31 59 96 91 144 32 48 58 90 58 94 0 3 8 18 19
32 10 15 31 50 46 77 16 28 48 76 71 108 24 31 44 63 44 70 0 30 192 208 305
282 36 24 180 74 215 74 28 1 179 34 280 61 143 40 174 41 570 36 723 -10 939
-33 1137 -122 17 -8 46 -14 65 -14 29 0 156 -25 373 -75 71 -16 165 -46 220
-70 17 -7 49 -15 71 -19 23 -3 54 -13 70 -21 16 -8 43 -15 59 -15 17 0 46 -5
65 -10 19 -6 102 -24 185 -41 82 -17 181 -41 220 -54 38 -13 108 -33 155 -45
47 -12 117 -32 155 -45 39 -12 86 -26 105 -30 19 -4 40 -11 45 -16 12 -9 149
-39 181 -39 12 0 50 -9 84 -20 101 -32 314 -29 364 5 20 14 41 25 45 25 9 0
34 24 96 89 50 54 102 81 156 81 54 0 101 23 155 77 46 46 49 55 58 138 3 28
15 70 27 95 27 53 38 234 21 329 -6 31 -16 84 -23 118 -10 55 -9 69 10 129 26
83 26 86 1 164 -25 80 -25 139 1 226 11 38 28 94 36 124 9 30 32 86 51 123 45
89 45 230 0 307 -14 25 -45 82 -67 126 -23 45 -66 114 -96 155 -30 41 -57 83
-59 94 -2 11 -16 85 -31 165 -22 118 -33 155 -60 200 -18 30 -42 76 -54 101
-11 26 -36 67 -55 92 -41 53 -53 105 -36 147 18 43 -2 91 -61 144 -86 77 -124
90 -281 94 -210 6 -398 -41 -645 -162 -64 -32 -113 -35 -113 -7 0 31 59 85
175 159 61 39 119 78 129 88 10 9 53 39 95 67 105 69 161 136 244 288 l47 86
0 108 c0 121 -35 220 -89 252 -158 96 -294 213 -401 343 -111 137 -240 136
-452 -2 -118 -77 -296 -210 -393 -294 -96 -82 -129 -108 -217 -171 -37 -26
-112 -81 -167 -120 -54 -40 -116 -82 -138 -94 -21 -12 -70 -44 -109 -70 -232
-157 -218 14 22 271 28 31 62 76 74 100 12 25 57 99 100 165 78 122 132 228
176 345 50 131 104 302 114 363 5 34 15 87 21 118 19 94 -16 218 -91 329 -23
34 -56 89 -73 122 -30 58 -42 69 -120 113 -35 20 -288 23 -360 5 -62 -16 -129
-8 -192 24 -27 14 -66 26 -85 26 -31 0 -73 19 -90 40 -26 32 -58 40 -170 40
-111 0 -117 1 -159 29 -33 22 -49 27 -62 20 -10 -5 -35 -9 -57 -9 -56 0 -140
-28 -155 -51 -6 -11 -39 -40 -73 -64 -66 -48 -165 -154 -209 -225 -15 -25 -38
-56 -50 -70 -34 -37 -92 -123 -99 -147 -9 -30 -30 -45 -51 -37 -16 6 -17 17
-10 108 21 295 -27 535 -129 642 l-51 53 -182 35 c-193 38 -284 44 -347 21z" fill="#f5f0ea"/>
  </g>
</svg>