<svg xmlns="http://www.w3.org/2000/svg" viewBox="0 0 806 806">
  <g transform="translate(0,806) scale(0.1,-0.1)">
    <path d="M2356 7725 c-22 -8 -51 -22 -65 -32 -147 -104 -783 -148 -946 -65
-78 39 -168 42 -239 7 -63 -31 -165 -125 -217 -200 -19 -27 -59 -84 -90 -125
-107 -143 -109 -149 -109 -380 0 -176 2 -205 19 -238 10 -20 21 -64 23 -97 3
-33 15 -80 26 -105 12 -25 27 -71 35 -102 8 -32 24 -72 35 -90 41 -68 252
-495 267 -543 9 -27 22 -63 30 -80 7 -16 18 -46 26 -65 7 -19 25 -54 41 -78
15 -24 28 -47 28 -53 0 -5 20 -50 45 -99 25 -49 45 -95 45 -102 0 -7 20 -53
45 -103 25 -49 45 -93 45 -97 0 -5 9 -27 19 -51 11 -23 25 -62 31 -87 18 -70
39 -130 65 -185 13 -27 31 -76 39 -107 41 -149 49 -173 74 -212 45 -70 52 -87
61 -150 5 -34 21 -96 35 -139 14 -42 26 -96 26 -118 0 -23 6 -55 14 -72 27
-60 46 -128 46 -167 0 -22 7 -59 15 -84 43 -125 57 -326 59 -826 1 -352 -7
-454 -39 -516 -8 -16 -15 -44 -15 -62 0 -18 -8 -49 -19 -70 -10 -20 -22 -51
-26 -69 -9 -44 -180 -379 -211 -414 -8 -8 -14 -19 -14 -23 0 -4 -22 -39 -48
-79 -27 -40 -52 -79 -56 -87 -15 -32 -34 -62 -54 -83 -20 -23 -172 -244 -172
-252 0 -3 -43 -69 -96 -147 -53 -79 -108 -163 -122 -188 -13 -25 -32 -54 -42
-65 -65 -75 -260 -417 -260 -456 0 -30 96 -121 159 -151 l54 -25 31 33 c36 40
59 69 111 144 21 30 43 58 50 62 7 4 27 33 46 63 19 31 44 72 57 91 12 19 22
38 22 43 0 4 9 16 20 26 11 10 20 22 20 26 0 4 14 28 30 52 17 25 30 49 30 55
0 5 6 12 13 15 7 2 23 24 35 48 13 24 31 56 40 70 9 15 32 52 50 83 18 30 48
74 67 96 19 22 48 66 66 98 18 31 59 96 91 144 32 48 58 90 58 94 0 3 8 18 19
32 10 15 31 50 46 77 16 28 48 76 71 108 24 31 44 63 44 70 0 30 192 208 305
282 36 24 180 74 215 74 28 1 179 34 280 61 143 40 174 41 570 36 723 -10 939
-33 1137 -122 17 -8 46 -14 65 -14 29 0 156 -25 373 -75 71 -16 165 -46 220
-70 17 -7 49 -15 71 -19 23 -3 54 -13 70 -21 16 -8 43 -15 59 -15 17 0 46 -5
65 -10 19 -6 102 -24 185 -41 82 -17 181 -41 220 -54 38 -13 108 -33 155 -45
47 -12 117 -32 155 -45 39 -12 86 -26 105 -30 19 -4 40 -11 45 -16 12 -9 149
-39 181 -39 12 0 50 -9 84 -20 101 -32 314 -29 364 5 20 14 41 25 45 25 9 0
34 24 96 89 50 54 102 81 156 81 54 0 101 23 155 77 46 46 49 55 58 138 3 28
15 70 27 95 27 53 38 234 21 329 -6 31 -16 84 -23 118 -10 55 -9 69 10 129 26
83 26 86 1 164 -25 80 -25 139 1 226 11 38 28 94 36 124 9 30 32 86 51 123 45
89 45 230 0 307 -14 25 -45 82 -67 126 -23 45 -66 114 -96 155 -30 41 -57 83
-59 94 -2 11 -16 85 -31 165 -22 118 -33 155 -60 200 -18 30 -42 76 -54 101
-11 26 -36 68 -56 93 -46 60 -54 110 -26 164 28 54 27 63 -11 114 -18 24 -40
56 -48 71 -46 91 -190 159 -350 166 -153 8 -171 25 -114 108 14 21 43 74 64
119 21 45 49 93 62 105 60 60 71 99 43 152 -8 15 -17 44 -21 63 -3 19 -16 49
-28 67 -11 18 -27 44 -35 59 -20 38 -46 65 -84 84 -70 37 -180 119 -249 187
-96 94 -108 112 -108 166 0 73 -100 253 -172 309 -18 14 -136 42 -176 42 -39
0 -88 -29 -148 -87 -32 -30 -74 -67 -93 -81 -20 -15 -105 -97 -191 -182 -204
-205 -217 -213 -261 -169 -23 23 -20 80 6 109 7 8 26 40 42 70 16 30 59 101
96 157 37 56 67 104 67 107 0 3 13 24 28 48 16 24 34 59 41 78 8 19 20 49 27
67 20 45 18 172 -2 202 -9 13 -54 62 -101 108 -46 47 -91 98 -100 113 -8 15
-27 34 -42 43 -14 9 -57 45 -94 80 -38 36 -92 77 -120 92 -29 14 -66 35 -83
46 -39 24 -286 30 -367 9 -62 -16 -129 -8 -192 24 -27 14 -66 26 -85 26 -31 0
-73 19 -90 40 -26 32 -58 40 -169 40 -109 0 -117 1 -160 29 -50 31 -126 46
-206 41 -107 -6 -223 -3 -295 8 -41 6 -106 16 -143 22 -50 7 -78 18 -105 40
-141 113 -588 215 -726 165z" fill="#f5f0ea" stroke="#2c2824" stroke-width="30"/>
  </g>
</svg>